<svg xmlns="http://www.w3.org/2000/svg" version="1.1" viewBox="140.9 389.3 718 221.4">
  <defs>
    <style>
      .cls-1 {
        fill: none;
        stroke: #7a2f3c;
        stroke-width: 2px;
      }

      .cls-2 {
        fill: #171717;
      }

      .cls-3 {
        fill: #db4d61;
      }
    </style>
  </defs>
  <!-- Generator: Adobe Illustrator 28.7.1, SVG Export Plug-In . SVG Version: 1.2.0 Build 142)  -->
  <g>
    <g id="Layer_2">
      <g id="Layer_1-2">
        <path class="cls-1" d="M785.1,513.6c0-.4,0-.6.3-.5" vector-effect="non-scaling-stroke"/>
        <path class="cls-2" d="M193.9,423l24.1-33.6s0,0,0,0h19.2s.1,0,.1.1h0c0,0-30.1,41.9-30.1,41.9h0c0,.1,18.3,42,18.3,42,0,0,0,.1,0,.1h-19.3s0,0-.1,0l-14.6-33.6s0,0-.1,0h-11.4s-.1,0-.1.1l-4.7,33.5s0,0-.1,0h-16.7s-.1,0-.1-.1h0l11.8-84s0,0,.1,0h16.7s.1,0,.1,0h0l-4.8,33.4s0,.1,0,.1h11.4s0,0,0,0h.1c0,0,0,0,0,0Z"/>
        <path class="cls-2" d="M260.9,423.1h50.2c0,0,.1,0,.1.1h0l-2.3,16.6s0,.1-.1.1h-50.3s-.1,0-.1.1l-4.7,33.5s0,.1-.1.1h-16.6c0,0-.1,0-.1-.1h0l11.8-83.9s0-.1.1-.1h67.1c0,0,.1,0,.1.1h0l-2.3,16.6s0,.1-.1.1h-50.2s-.1,0-.1.1l-2.4,16.5c0,0,0,.1.1.1h0c0,0,0,0,0,0Z"/>
        <path class="cls-2" d="M334.6,456.7s0,0,0,0h33.3c.1,0,.2,0,.2-.2l9.4-67c0-.1.1-.2.2-.2h16.5c.1,0,.2,0,.2.2l-11.8,83.7c0,.2-.1.3-.3.3h-67s-.1,0-.1-.1h0l11.8-83.9c0,0,0-.1.2-.1h16.6c0,0,.1,0,.1.1l-9.4,67.1h0Z"/>
        <path class="cls-2" d="M415.4,440l-4.7,33.5s0,.1-.1.1h-16.6s-.1,0-.1-.1h0l11.8-84s0-.1.1-.1h67.1s.1,0,.1.1h0l-7.1,50.3s0,.1-.1.1h-50.3s-.1,0-.1.1h0ZM451.2,423.1c0,0,.1,0,.2-.1l2.4-16.5c0,0,0-.2-.1-.2h-33.3c0,0-.1,0-.1.1l-2.4,16.5c0,0,0,.2.1.2h33.3,0Z"/>
        <path class="cls-2" d="M560.4,406.3h-22.1s-.1,0-.1.1l-9.4,67.1s0,.1-.1.1h-16.6s-.1,0-.1-.1h0l9.4-67.1s0-.1-.1-.1h-22.1s-.1,0-.1.1l-9.4,67.1s0,.1-.1.1h-16.6s-.1,0-.1-.1h0l11.8-83.9s0-.1.1-.1h95.1s.1,0,.1.1h0l-11.8,84s0,.1-.1.1h-16.6s-.1,0-.1-.1h0l9.4-67s0-.1-.1-.1h0c0,0,0,0,0,0Z"/>
        <path class="cls-3" d="M785.1,513.6c0-.4,0-.6.3-.5h24.2c0,0,.1,0,.2-.1l3.4-24.3c0-.1,0-.2.2-.2h24.4s0,0,0,0h0l-3.4,24.4s0,0,0,0h24.4c0,0,.1,0,.1.1h0l-3.4,24.3c0,0,0,.2-.2.2h-24.3c-.1,0-.2,0-.2.1l-3.4,24.3s0,.1-.1.1h-24.4s0,0,0,0h0l3.4-24.4s0,0,0,0h-24.3c-.1,0-.2,0-.2-.2l3.3-23.9h0,0Z"/>
        <path class="cls-2" d="M220.5,562.3c0,0,0-.1-.1-.1h-24c-.1,0-.1,0-.1-.2l3.4-24s0-.1.1-.1h48.3s.1,0,.1.1h0l-10.2,72.5c0,0,0,.1-.2.1h-96.7c-.1,0-.2,0-.2-.2l17-121s0,0,0,0h96.8c.1,0,.1,0,.1.1l-3.4,24s0,.1-.1.1h-72.4c-.1,0-.2,0-.2.2l-10.2,72.4s0,.1,0,.1h48.1c0,0,.2,0,.2-.2l3.4-23.9h0s0,0,0,0Z"/>
        <path class="cls-2" d="M333.5,562.2h-48.3s0,0-.1,0l-6.8,48.3s0,0,0,0h-24.1s-.1,0-.1-.1h0l17-121.1s0,0,.1,0h96.8s.1,0,.1.1h0l-17,121.1s0,0-.1,0h-24.1s-.1,0-.1-.1h0l6.8-48.3s0-.1,0-.1h0ZM292.1,513.6s-.1,0-.1.1l-3.5,24s0,.1,0,.1h48.2s.1,0,.1-.1l3.5-24s0-.1,0-.1h-48.2Z"/>
        <path class="cls-2" d="M494.1,513.8c0-.1,0-.2-.1-.2h-31.9c-.1,0-.2,0-.2.2l-13.6,96.7c0,0,0,.1-.2.1h-24.1s0,0,0,0h0l13.6-96.7c0,0,0-.2-.1-.2h-31.9c-.2,0-.3,0-.3.2l-13.6,96.6c0,.1-.1.2-.2.2h-23.9c-.1,0-.2,0-.2-.2l17-120.9c0,0,0-.1.2-.1h137.2s0,0,0,0l-17,121c0,0,0,.2-.2.2h-23.9c-.1,0-.2,0-.1-.2l13.6-96.7h0Z"/>
        <path class="cls-2" d="M562.2,489.5l-17,121s0,.1-.1,0h-24.1s-.1,0-.1-.1h0l17-121s0-.1.1,0h24.1s.1,0,.1.1h0Z"/>
        <path class="cls-2" d="M647.6,513.6h-48.2s-.1,0-.1.1l-13.6,96.8s0,.1-.1.1h-24c0,0-.1,0-.1-.1h0l17-121s0-.1.1-.1h96.8c0,0,.1,0,.1.1h0l-17,121s0,.1-.1.1h-24c0,0-.1,0-.1-.1h0l13.6-96.7c0,0,0-.1-.1-.1h0s0,0,0,0Z"/>
        <path class="cls-2" d="M785.4,513.1c-.2,0-.3.1-.3.5h-72.3c-.1,0-.3.1-.3.3l-10.2,72.4s0,.1.1.1h48.1c0,0,.2,0,.2-.1l3.3-23.9c0-.1,0-.2-.2-.2h-23.9c-.1,0-.1,0-.1-.2l3.4-24.1s0,0,0,0h48.2c.1,0,.3.1.3.3h0s-10.2,72.4-10.2,72.4c0,.1,0,.1-.2.1h-96.7s-.1,0-.1-.1h0l17-121.1s0,0,0,0h96.9s0,0,0,0l-3.3,23.7h0Z"/>
      </g>
    </g>
  </g>
</svg>